<svg width="360" height="208" viewBox="0 0 360 208" fill="none" xmlns="http://www.w3.org/2000/svg">
<rect width="360" height="208" fill="#E1E1E1"/>
<g clip-path="url(#clip0_61_4720)">
<path d="M218.485 131.64L186.924 96.88C186.043 95.8113 184.943 94.9505 183.699 94.358C182.456 93.7655 181.1 93.4556 179.727 93.4498C178.353 93.4441 176.995 93.7428 175.747 94.3249C174.499 94.9071 173.392 95.7586 172.502 96.82C171.613 97.8814 170.963 99.127 170.598 100.47C170.233 101.812 170.162 103.22 170.389 104.593C170.617 105.967 171.138 107.273 171.915 108.421C172.693 109.569 173.708 110.531 174.891 111.24L210.398 139.6C211.444 140.661 212.863 141.257 214.343 141.257C215.823 141.257 217.242 140.661 218.288 139.6C219.334 138.539 219.922 137.1 219.922 135.6C219.922 134.1 219.334 132.661 218.288 131.6L218.485 131.64ZM180.138 108C179.358 108 178.595 107.765 177.946 107.326C177.297 106.886 176.792 106.262 176.493 105.531C176.195 104.8 176.116 103.996 176.269 103.22C176.421 102.444 176.797 101.731 177.348 101.172C177.9 100.612 178.603 100.231 179.368 100.077C180.134 99.9225 180.927 100.002 181.648 100.304C182.369 100.607 182.985 101.12 183.418 101.778C183.852 102.436 184.083 103.209 184.083 104C184.083 105.061 183.668 106.078 182.928 106.828C182.188 107.579 181.184 108 180.138 108Z" fill="white"/>
<path d="M195.879 133.6L189.251 128.32C185.097 129.97 180.597 130.524 176.174 129.929C171.751 129.334 167.549 127.611 163.963 124.92L173.194 115.52L172.603 114.92C170.639 113.731 169.009 112.05 167.868 110.04L167.671 109.76L158.321 119.24C154.956 114.603 153.142 108.997 153.142 103.24C153.142 97.4832 154.956 91.8771 158.321 87.24L167.513 96.56C168.773 94.1773 170.675 92.2072 172.997 90.88L163.963 81.72C168.521 78.2724 174.056 76.4099 179.743 76.4099C185.431 76.4099 190.966 78.2724 195.524 81.72L186.45 90.72C187.941 91.5263 189.277 92.5965 190.396 93.88L192.329 96L200.929 87.28C203.277 90.5304 204.874 94.2736 205.605 98.2335C206.336 102.193 206.18 106.269 205.151 110.16L208.622 114.16C209.388 112.067 209.918 109.894 210.2 107.68L214.58 106.44C214.885 106.346 215.154 106.156 215.345 105.897C215.537 105.638 215.642 105.324 215.645 105V101.56C215.639 101.231 215.528 100.913 215.329 100.653C215.13 100.394 214.853 100.206 214.54 100.12L210.2 98.96C210.2 97.8 209.806 96.6 209.53 95.44L213.041 92.6C213.299 92.4091 213.487 92.1355 213.572 91.8234C213.658 91.5112 213.638 91.1789 213.514 90.88L212.213 87.68C212.079 87.3798 211.853 87.1316 211.568 86.9729C211.284 86.8142 210.956 86.7535 210.634 86.8L206.216 87.44C205.611 86.4533 204.98 85.4933 204.322 84.56L206.61 80.56C206.761 80.2724 206.819 79.9443 206.777 79.6215C206.734 79.2986 206.593 78.9974 206.374 78.76L204.164 76C203.903 75.7988 203.585 75.6899 203.257 75.6899C202.929 75.6899 202.61 75.7988 202.35 76L198.404 78.36C197.485 77.6474 196.523 76.9928 195.524 76.4L196.077 71.68C196.11 71.3557 196.041 71.0289 195.877 70.748C195.714 70.4671 195.466 70.2469 195.169 70.12L192.053 68.8C191.747 68.683 191.412 68.6705 191.098 68.7644C190.785 68.8582 190.511 69.0533 190.317 69.32L187.555 73.04C186.441 72.7328 185.307 72.5056 184.162 72.36L182.781 68C182.689 67.6901 182.501 67.4182 182.246 67.2239C181.99 67.0296 181.68 66.9232 181.361 66.92H177.968C177.646 66.9096 177.329 67.0109 177.071 67.2073C176.813 67.4036 176.628 67.6831 176.548 68L175.404 72.4C174.26 72.4 173.116 72.8 171.971 73.08L169.131 69.44C168.932 69.1803 168.655 68.9931 168.342 68.9066C168.029 68.82 167.697 68.8388 167.395 68.96L164.278 70.28C163.975 70.4088 163.722 70.6352 163.558 70.9244C163.394 71.2135 163.328 71.5493 163.371 71.88L164.002 76.4C162.977 77.0061 161.989 77.6739 161.043 78.4L157.137 76C156.877 75.7988 156.558 75.6899 156.23 75.6899C155.902 75.6899 155.584 75.7988 155.323 76L152.877 78.6C152.675 78.8554 152.565 79.1728 152.565 79.5C152.565 79.8271 152.675 80.1446 152.877 80.4L155.125 84.4C154.321 85.3568 153.571 86.3584 152.877 87.4L148.497 86.76C148.176 86.7135 147.848 86.7742 147.564 86.9329C147.279 87.0916 147.053 87.3398 146.919 87.64L145.617 90.84C145.504 91.1466 145.489 91.4816 145.574 91.7974C145.659 92.1133 145.84 92.3941 146.091 92.6L149.72 95.48C149.44 96.6145 149.216 97.7626 149.05 98.92L144.631 100C144.308 100.073 144.018 100.255 143.81 100.517C143.602 100.778 143.488 101.104 143.487 101.44V104.88C143.493 105.209 143.603 105.527 143.803 105.787C144.002 106.046 144.279 106.233 144.592 106.32L148.931 107.68C149.094 108.825 149.318 109.96 149.602 111.08L145.933 113.88C145.668 114.084 145.478 114.372 145.393 114.698C145.307 115.024 145.33 115.369 145.46 115.68L146.762 118.84C146.887 119.14 147.104 119.392 147.381 119.558C147.658 119.723 147.98 119.794 148.3 119.76L152.877 119.2C153.483 120.255 154.155 121.271 154.889 122.24L152.64 126.24C152.48 126.518 152.416 126.842 152.459 127.161C152.502 127.48 152.649 127.776 152.877 128L155.283 130.44C155.514 130.668 155.812 130.815 156.132 130.858C156.452 130.902 156.777 130.839 157.059 130.68L161.004 128.44C161.936 129.166 162.911 129.834 163.923 130.44L163.371 134.8C163.328 135.131 163.394 135.466 163.558 135.756C163.722 136.045 163.975 136.271 164.278 136.4L167.395 137.68C167.691 137.812 168.023 137.841 168.337 137.761C168.652 137.682 168.931 137.498 169.131 137.24L171.893 133.68C173.051 133.968 174.223 134.195 175.404 134.36L176.548 138.8C176.621 139.124 176.802 139.413 177.061 139.617C177.32 139.821 177.64 139.928 177.968 139.92H181.361C181.68 139.917 181.99 139.81 182.246 139.616C182.501 139.422 182.689 139.15 182.781 138.84L184.004 134.32C185.202 134.161 186.389 133.92 187.555 133.6L190.277 137.28C190.467 137.551 190.744 137.747 191.061 137.834C191.377 137.922 191.714 137.895 192.013 137.76L195.13 136.48C195.433 136.351 195.686 136.125 195.85 135.836C196.014 135.546 196.08 135.211 196.037 134.88L195.879 133.6Z" fill="white"/>
</g>
<rect width="360" height="208" fill="url(#paint0_linear_61_4720)" fill-opacity="0.7"/>
<defs>
<linearGradient id="paint0_linear_61_4720" x1="180" y1="0" x2="180" y2="208" gradientUnits="userSpaceOnUse">
<stop stop-color="#1D1D1B"/>
<stop offset="1" stop-color="#1D1D1B" stop-opacity="0"/>
</linearGradient>
<clipPath id="clip0_61_4720">
<rect width="94.6849" height="96" fill="white" transform="translate(133.151 56)"/>
</clipPath>
</defs>
</svg>
