<svg width="360" height="208" viewBox="0 0 360 208" fill="none" xmlns="http://www.w3.org/2000/svg">
<rect width="360" height="208" fill="#E1E1E1"/>
<g clip-path="url(#clip0_61_4717)">
<path d="M210.337 94.64C208.793 94.5643 207.245 94.6718 205.726 94.96L200.508 80.84H200.71H206.697C207.587 80.84 208.441 81.1898 209.071 81.8124C209.7 82.435 210.054 83.2795 210.054 84.16V85.48H216.809V84C216.809 82.6887 216.547 81.3902 216.038 80.1792C215.53 78.9682 214.784 77.8685 213.845 76.9431C212.905 76.0177 211.79 75.2848 210.563 74.7867C209.337 74.2885 208.023 74.0348 206.697 74.04H197.919L192.742 79.16L194.764 84.64H175.591L173.043 78.16H180.849V71.52H160.018V78.16H165.843L168.472 84.84L161.515 95.76C159.137 94.9415 156.628 94.5618 154.112 94.64C150.11 94.7385 146.217 95.9583 142.888 98.1576C139.558 100.357 136.928 103.446 135.303 107.064C133.679 110.683 133.126 114.684 133.709 118.601C134.292 122.518 135.988 126.191 138.598 129.194C141.209 132.196 144.628 134.404 148.457 135.561C152.286 136.718 156.369 136.776 160.231 135.729C164.092 134.683 167.574 132.574 170.272 129.648C172.969 126.722 174.772 123.099 175.47 119.2H182.022L187.24 114.04L178.342 91.28H197.312L199.416 97.16C194.916 99.5766 191.455 103.525 189.675 108.273C187.896 113.021 187.918 118.246 189.738 122.979C191.558 127.713 195.052 131.632 199.572 134.011C204.092 136.39 209.332 137.067 214.319 135.917C219.305 134.766 223.701 131.866 226.689 127.754C229.678 123.643 231.057 118.598 230.571 113.558C230.085 108.517 227.766 103.821 224.045 100.343C220.324 96.8638 215.454 94.8376 210.337 94.64ZM154.153 129.8C150.323 129.736 146.676 128.171 144.013 125.448C141.35 122.725 139.891 119.067 139.955 115.28C140.019 111.493 141.603 107.886 144.356 105.253C147.11 102.62 150.808 101.176 154.638 101.24C155.687 101.237 156.733 101.358 157.753 101.6L152.818 109.36C152.011 110.59 151.658 112.059 151.821 113.517C151.983 114.975 152.649 116.333 153.708 117.36C154.922 118.557 156.564 119.233 158.279 119.24H168.593C167.752 122.358 165.865 125.1 163.242 127.019C160.618 128.938 157.414 129.918 154.153 129.8ZM168.755 112.56H158.724L163.82 104.56C166.321 106.608 168.058 109.424 168.755 112.56ZM179.272 112.56H175.753C174.975 107.127 172.069 102.214 167.663 98.88L171.708 92.56L179.272 112.56ZM208.598 129.96C204.959 129.778 201.525 128.234 198.994 125.642C196.463 123.05 195.023 119.603 194.966 116C194.872 113.511 195.434 111.041 196.597 108.832C197.76 106.623 199.484 104.751 201.6 103.4L206.292 116C206.611 116.823 207.24 117.492 208.048 117.865C208.855 118.238 209.777 118.286 210.62 118C211.459 117.693 212.142 117.072 212.521 116.271C212.899 115.47 212.943 114.553 212.643 113.72L208.153 101.44H209.609C211.505 101.493 213.373 101.914 215.104 102.68C216.836 103.446 218.398 104.542 219.701 105.905C221.005 107.269 222.024 108.872 222.701 110.625C223.377 112.377 223.698 114.245 223.645 116.12C223.592 117.995 223.166 119.842 222.391 121.554C221.616 123.267 220.508 124.811 219.129 126.1C217.751 127.389 216.129 128.397 214.357 129.066C212.585 129.735 210.696 130.053 208.8 130L208.598 129.96Z" fill="white"/>
</g>
<rect width="360" height="208" fill="url(#paint0_linear_61_4717)" fill-opacity="0.7"/>
<defs>
<linearGradient id="paint0_linear_61_4717" x1="180" y1="0" x2="180" y2="208" gradientUnits="userSpaceOnUse">
<stop stop-color="#1D1D1B"/>
<stop offset="1" stop-color="#1D1D1B" stop-opacity="0"/>
</linearGradient>
<clipPath id="clip0_61_4717">
<rect width="97.0787" height="96" fill="white" transform="translate(133.483 56)"/>
</clipPath>
</defs>
</svg>
