<svg width="24" height="24" viewBox="0 0 24 24" fill="none" xmlns="http://www.w3.org/2000/svg">
<path d="M19 17.0001V11.8001C18.5 11.9001 18 12.0001 17.5001 12.0001H16.9999V18H7V11.0001C7 8.20007 9.2 6.00007 12 6.00007C12.1 4.70006 12.7 3.60007 13.5 2.70007C13.2 2.30006 12.6 2.00006 12 2.00006C10.9 2.00006 10 2.90006 10 4.00007V4.30007C7 5.20007 4.99999 7.90007 4.99999 11.0001V17.0001L3 19.0001V20.0001H21V19.0001L19 17.0001ZM10 21C10 22.1001 10.9 23.0001 12 23.0001C13.1 23.0001 14 22.1001 14 21H10ZM21 6.50006C21 8.40007 19.4 10.0001 17.5001 10.0001C15.6 10.0001 14 8.40007 14 6.50006C14 4.60007 15.6 3.00007 17.5001 3.00007C19.4 3.00007 21 4.60007 21 6.50006Z" fill="currentColor"/>
<path d="M17.4981 10C19.398 10 20.9981 8.4 20.9981 6.5C20.9981 4.60001 19.398 3 17.4981 3C15.5981 3 13.998 4.60001 13.998 6.5C13.998 8.4 15.5981 10 17.4981 10Z" fill="#FD516A"/>
</svg>
