<svg width="12" height="15" viewBox="0 0 12 15" fill="none" xmlns="http://www.w3.org/2000/svg">
<path d="M12 11.6667V12.3334H0V11.6667L1.33333 10.3334V6.33337C1.33333 4.26671 2.68667 2.44671 4.66667 1.86004C4.66667 1.79337 4.66667 1.73337 4.66667 1.66671C4.66667 1.31309 4.80714 0.973947 5.05719 0.723898C5.30724 0.47385 5.64638 0.333374 6 0.333374C6.35362 0.333374 6.69276 0.47385 6.94281 0.723898C7.19286 0.973947 7.33333 1.31309 7.33333 1.66671C7.33333 1.73337 7.33333 1.79337 7.33333 1.86004C9.31333 2.44671 10.6667 4.26671 10.6667 6.33337V10.3334L12 11.6667ZM7.33333 13C7.33333 13.3537 7.19286 13.6928 6.94281 13.9429C6.69276 14.1929 6.35362 14.3334 6 14.3334C5.64638 14.3334 5.30724 14.1929 5.05719 13.9429C4.80714 13.6928 4.66667 13.3537 4.66667 13" fill="#D0D0D0"/>
</svg>
