<svg width="16" height="16" viewBox="0 0 16 16" fill="none" xmlns="http://www.w3.org/2000/svg">
<path d="M12.6667 11.3334V7.86671C12.3333 7.93337 12 8.00004 11.6667 8.00004H11.3333V12H4.66667V7.33337C4.66667 5.46671 6.13333 4.00004 8 4.00004C8.06667 3.13337 8.46667 2.40004 9 1.80004C8.8 1.53337 8.4 1.33337 8 1.33337C7.26667 1.33337 6.66667 1.93337 6.66667 2.66671V2.86671C4.66667 3.46671 3.33333 5.26671 3.33333 7.33337V11.3334L2 12.6667V13.3334H14V12.6667L12.6667 11.3334ZM6.66667 14C6.66667 14.7334 7.26667 15.3334 8 15.3334C8.73333 15.3334 9.33333 14.7334 9.33333 14H6.66667ZM14 4.33337C14 5.60004 12.9333 6.66671 11.6667 6.66671C10.4 6.66671 9.33333 5.60004 9.33333 4.33337C9.33333 3.06671 10.4 2.00004 11.6667 2.00004C12.9333 2.00004 14 3.06671 14 4.33337Z" fill="#1D1D1B"/>
<path d="M11.6654 6.66667C12.932 6.66667 13.9987 5.6 13.9987 4.33333C13.9987 3.06667 12.932 2 11.6654 2C10.3987 2 9.33203 3.06667 9.33203 4.33333C9.33203 5.6 10.3987 6.66667 11.6654 6.66667Z" fill="#FD516A"/>
</svg>
