<svg width="12" height="15" viewBox="0 0 12 15" fill="none" xmlns="http://www.w3.org/2000/svg">
<path d="M10.6667 10.3334V6.86671C10.3333 6.93337 10 7.00004 9.66667 7.00004H9.33333V11H2.66667V6.33337C2.66667 4.46671 4.13333 3.00004 6 3.00004C6.06667 2.13337 6.46667 1.40004 7 0.800041C6.8 0.533374 6.4 0.333374 6 0.333374C5.26667 0.333374 4.66667 0.933374 4.66667 1.66671V1.86671C2.66667 2.46671 1.33333 4.26671 1.33333 6.33337V10.3334L0 11.6667V12.3334H12V11.6667L10.6667 10.3334ZM4.66667 13C4.66667 13.7334 5.26667 14.3334 6 14.3334C6.73333 14.3334 7.33333 13.7334 7.33333 13H4.66667ZM12 3.33337C12 4.60004 10.9333 5.66671 9.66667 5.66671C8.4 5.66671 7.33333 4.60004 7.33333 3.33337C7.33333 2.06671 8.4 1.00004 9.66667 1.00004C10.9333 1.00004 12 2.06671 12 3.33337Z" fill="#1D1D1B"/>
</svg>
