<svg width="24" height="24" viewBox="0 0 24 24" fill="none" xmlns="http://www.w3.org/2000/svg">
<path d="M21 19.0001V20.0001H3V19.0001L4.99999 17.0001V11.0001C4.99999 7.90007 7.03 5.17007 10 4.29007C10 4.19006 10 4.10006 10 4.00007C10 3.46964 10.2107 2.96093 10.5858 2.58586C10.9609 2.21078 11.4696 2.00006 12 2.00006C12.5304 2.00006 13.0391 2.21078 13.4142 2.58586C13.7893 2.96093 14 3.46964 14 4.00007C14 4.10006 14 4.19006 14 4.29007C16.9699 5.17007 19 7.90007 19 11.0001V17.0001L21 19.0001ZM14 21C14 21.5306 13.7893 22.0392 13.4142 22.4142C13.0391 22.7894 12.5304 23.0001 12 23.0001C11.4696 23.0001 10.9609 22.7894 10.5858 22.4142C10.2107 22.0392 10 21.5306 10 21" fill="#1D1D1B"/>
</svg>
