<svg width="16" height="16" viewBox="0 0 16 16" fill="none" xmlns="http://www.w3.org/2000/svg">
<path d="M14 12.6667V13.3334H2V12.6667L3.33333 11.3334V7.33337C3.33333 5.26671 4.68667 3.44671 6.66667 2.86004C6.66667 2.79337 6.66667 2.73337 6.66667 2.66671C6.66667 2.31309 6.80714 1.97395 7.05719 1.7239C7.30724 1.47385 7.64638 1.33337 8 1.33337C8.35362 1.33337 8.69276 1.47385 8.94281 1.7239C9.19286 1.97395 9.33333 2.31309 9.33333 2.66671C9.33333 2.73337 9.33333 2.79337 9.33333 2.86004C11.3133 3.44671 12.6667 5.26671 12.6667 7.33337V11.3334L14 12.6667ZM9.33333 14C9.33333 14.3537 9.19286 14.6928 8.94281 14.9428C8.69276 15.1929 8.35362 15.3334 8 15.3334C7.64638 15.3334 7.30724 15.1929 7.05719 14.9428C6.80714 14.6928 6.66667 14.3537 6.66667 14" fill="#C5C5C5"/>
</svg>
