<svg width="18" height="18" viewBox="0 0 18 18" fill="none" xmlns="http://www.w3.org/2000/svg">
<path d="M3.02217 14.8912C3.99964 15.8686 5.42347 15.8856 6.41224 14.7612C7.45186 13.5803 8.62708 11.3599 10.2543 9.73262C11.4521 8.54045 12.8082 9.65352 14.5201 8.17319C15.362 7.51213 15.8592 6.42165 15.6615 5.53459L13.4127 6.15045C13.085 6.2352 12.859 6.0318 12.763 5.68714L12.5935 5.11083C12.4974 4.76617 12.6161 4.47802 12.9381 4.39326L15.1925 3.78305C15.1191 3.54575 14.9213 3.21804 14.6558 2.94119C13.311 1.56821 11.0566 1.56821 9.74015 2.82253C7.78522 4.67577 9.22599 6.58551 8.03382 7.77768C6.54219 9.26366 4.32735 10.4615 3.14082 11.5011C2.0221 12.4842 2.03905 13.9137 3.02217 14.8912ZM3.66064 14.2527C3.06737 13.6425 3.06737 12.7441 3.77364 12.1283C4.94886 11.0999 7.31626 9.77782 8.67793 8.41614C10.1752 6.91886 8.60448 5.10518 10.3899 3.461C11.2544 2.65868 12.7234 2.58523 13.7517 3.30279L12.7291 3.574C11.8646 3.79435 11.486 4.46672 11.7459 5.35943L11.9098 5.91314L12.52 8.16754C11.5595 8.29184 10.5538 8.15059 9.6102 9.08851C8.11857 10.5745 6.8134 12.9588 5.78508 14.1397C5.15791 14.8573 4.2539 14.8573 3.66064 14.2527ZM10.13 6.34255L11.3222 6.02615C11.4295 5.9979 11.4917 5.89054 11.4578 5.77754C11.4295 5.67019 11.3222 5.60804 11.2205 5.63629L10.017 5.95834C9.90966 5.9866 9.85316 6.0996 9.87576 6.2013C9.90966 6.3143 10.0114 6.37645 10.13 6.34255ZM10.2769 6.95841L11.4691 6.63636C11.5764 6.61376 11.6386 6.50641 11.6047 6.38775C11.5764 6.2804 11.4691 6.2239 11.3674 6.2465L10.1639 6.56856C10.0566 6.59681 10.0001 6.70981 10.0283 6.81151C10.0566 6.93016 10.1583 6.98667 10.2769 6.95841ZM13.5653 6.97537L14.6501 6.68156C14.5201 6.95276 14.345 7.21267 14.1077 7.44432C13.7913 7.75508 13.4636 7.93023 13.1246 8.03759L12.8477 7.01492C13.0624 7.06012 13.2997 7.04882 13.5653 6.97537ZM10.4238 7.56863L11.6273 7.24657C11.729 7.21832 11.7968 7.10532 11.7685 6.99232C11.7403 6.89061 11.6329 6.82846 11.5199 6.86236L10.3221 7.18442C10.2148 7.21267 10.1583 7.31437 10.1752 7.42172C10.1978 7.54038 10.3165 7.59688 10.4238 7.56863ZM4.69461 13.8911C5.06751 13.8911 5.36132 13.5916 5.36132 13.2187C5.36132 12.8515 5.06751 12.552 4.69461 12.552C4.32735 12.552 4.02789 12.8515 4.02789 13.2187C4.02789 13.5916 4.32735 13.8911 4.69461 13.8911Z" fill="currentColor"/>
</svg>
