<svg width="80" height="72" viewBox="0 0 80 72" fill="none" xmlns="http://www.w3.org/2000/svg">
<rect width="80" height="72" fill="#E1E1E1"/>
<g clip-path="url(#clip0_223_7176)">
<path d="M51.6667 32.1C51.0303 32.0685 50.3924 32.1132 49.7667 32.2333L47.6167 26.35H47.7H50.1667C50.5335 26.35 50.8854 26.4958 51.1448 26.7552C51.4043 27.0146 51.55 27.3665 51.55 27.7333V28.2833H54.3333V27.6667C54.3333 27.1203 54.2254 26.5793 54.0158 26.0747C53.8062 25.5701 53.4991 25.1119 53.1119 24.7263C52.7248 24.3407 52.2653 24.0354 51.7599 23.8278C51.2545 23.6202 50.713 23.5145 50.1667 23.5167H46.55L44.4167 25.65L45.25 27.9333H37.35L36.3 25.2333H39.5167V22.4667H30.9333V25.2333H33.3333L34.4167 28.0167L31.55 32.5667C30.5705 32.2256 29.5367 32.0674 28.5 32.1C26.8507 32.141 25.2469 32.6493 23.875 33.5657C22.5032 34.4821 21.4195 35.769 20.75 37.2768C20.0806 38.7847 19.8527 40.4516 20.0931 42.0838C20.3334 43.716 21.032 45.2464 22.1077 46.4973C23.1834 47.7482 24.592 48.6682 26.1698 49.1502C27.7476 49.6323 29.4298 49.6567 31.0209 49.2206C32.612 48.7845 34.0467 47.9058 35.1582 46.6866C36.2697 45.4675 37.0124 43.9579 37.3 42.3333H40L42.15 40.1833L38.4833 30.7H46.3L47.1667 33.15C45.3125 34.1569 43.8866 35.8021 43.1532 37.7805C42.4199 39.7588 42.4291 41.936 43.179 43.9081C43.9289 45.8802 45.3686 47.5134 47.2311 48.5047C49.0936 49.496 51.2525 49.7781 53.3072 49.2987C55.3619 48.8193 57.1729 47.6108 58.4044 45.8976C59.6359 44.1844 60.2041 42.0827 60.0038 39.9823C59.8034 37.882 58.8481 35.9256 57.3149 34.4761C55.7818 33.0266 53.7749 32.1823 51.6667 32.1V32.1ZM28.5167 46.75C26.9386 46.7235 25.4358 46.0712 24.3387 44.9366C23.2416 43.802 22.6401 42.278 22.6667 40.7C22.6932 39.122 23.3455 37.6191 24.4801 36.522C25.6147 35.4249 27.1386 34.8235 28.7167 34.85C29.1489 34.8486 29.5797 34.899 30 35L27.9667 38.2333C27.634 38.746 27.4889 39.3579 27.5557 39.9654C27.6225 40.5728 27.8972 41.1385 28.3333 41.5667C28.8335 42.0655 29.5102 42.347 30.2167 42.35H34.4667C34.1201 43.649 33.3427 44.7919 32.2617 45.5913C31.1807 46.3907 29.8602 46.7992 28.5167 46.75ZM34.5333 39.5667H30.4L32.5 36.2333C33.5305 37.0867 34.2461 38.2599 34.5333 39.5667V39.5667ZM38.8667 39.5667H37.4167C37.096 37.3031 35.8989 35.256 34.0833 33.8667L35.75 31.2333L38.8667 39.5667ZM50.95 46.8167C49.4505 46.7407 48.036 46.0976 46.993 45.0175C45.9501 43.9374 45.3568 42.5012 45.3333 41C45.2945 39.963 45.5261 38.9338 46.0053 38.0133C46.4846 37.0929 47.1949 36.3129 48.0667 35.75L50 41C50.1313 41.343 50.3906 41.6215 50.7233 41.777C51.056 41.9325 51.436 41.9527 51.7833 41.8333V41.8333C52.129 41.7056 52.4103 41.4467 52.5663 41.1129C52.7223 40.779 52.7404 40.3971 52.6167 40.05L50.7667 34.9333H51.3667C52.148 34.9552 52.9174 35.1308 53.6309 35.45C54.3445 35.7693 54.9881 36.2259 55.5251 36.7939C56.0622 37.3619 56.4821 38.0301 56.7609 38.7604C57.0397 39.4906 57.1719 40.2686 57.15 41.05C57.1281 41.8314 56.9525 42.6008 56.6333 43.3143C56.3141 44.0278 55.8574 44.6714 55.2894 45.2085C54.7214 45.7455 54.0532 46.1654 53.323 46.4442C52.5927 46.723 51.8147 46.8552 51.0333 46.8333L50.95 46.8167Z" fill="white"/>
</g>
<defs>
<clipPath id="clip0_223_7176">
<rect width="40" height="40" fill="white" transform="translate(20 16)"/>
</clipPath>
</defs>
</svg>
