<svg width="80" height="72" viewBox="0 0 80 72" fill="none" xmlns="http://www.w3.org/2000/svg">
<rect width="80" height="72" fill="#E1E1E1"/>
<path d="M56.05 47.5166L42.7167 33.0333C42.3446 32.588 41.8797 32.2293 41.3545 31.9824C40.8293 31.7356 40.2566 31.6064 39.6763 31.604C39.096 31.6017 38.5222 31.7261 37.995 31.9687C37.4678 32.2112 37 32.566 36.6242 33.0083C36.2485 33.4505 35.974 33.9695 35.8198 34.529C35.6656 35.0884 35.6355 35.6748 35.7316 36.2471C35.8277 36.8194 36.0477 37.3638 36.3762 37.8421C36.7047 38.3205 37.1337 38.7214 37.6333 39.0166L52.6333 50.8333C53.0754 51.2753 53.6749 51.5236 54.3 51.5236C54.9251 51.5236 55.5246 51.2753 55.9667 50.8333C56.4087 50.3912 56.657 49.7917 56.657 49.1666C56.657 48.5415 56.4087 47.942 55.9667 47.4999L56.05 47.5166ZM39.85 37.6666C39.5204 37.6666 39.1981 37.5689 38.9241 37.3857C38.65 37.2026 38.4364 36.9423 38.3102 36.6377C38.1841 36.3332 38.1511 35.9981 38.2154 35.6748C38.2797 35.3515 38.4384 35.0545 38.6715 34.8214C38.9046 34.5883 39.2016 34.4296 39.5249 34.3653C39.8482 34.301 40.1833 34.334 40.4878 34.4601C40.7924 34.5863 41.0527 34.7999 41.2358 35.074C41.4189 35.3481 41.5167 35.6703 41.5167 35.9999C41.5167 36.442 41.3411 36.8659 41.0285 37.1785C40.716 37.491 40.292 37.6666 39.85 37.6666Z" fill="white"/>
<path d="M46.5 48.3333L43.7 46.1333C41.9449 46.8209 40.0441 47.0515 38.1755 46.8038C36.3069 46.556 34.5319 45.8378 33.0167 44.7166L36.9167 40.8L36.6667 40.55C35.8371 40.0544 35.1485 39.3543 34.6667 38.5167L34.5833 38.4L30.6333 42.35C29.2119 40.4179 28.4452 38.082 28.4452 35.6833C28.4452 33.2847 29.2119 30.9488 30.6333 29.0166L34.5167 32.9C35.0486 31.9072 35.8521 31.0863 36.8333 30.5333L33.0167 26.7166C34.9425 25.2801 37.2808 24.5041 39.6833 24.5041C42.0859 24.5041 44.4242 25.2801 46.35 26.7166L42.5167 30.4667C43.1463 30.8026 43.7108 31.2485 44.1833 31.7833L45 32.6667L48.6333 29.0333C49.625 30.3877 50.3 31.9473 50.6087 33.5973C50.9173 35.2472 50.8517 36.9454 50.4167 38.5666L51.8833 40.2333C52.2069 39.3614 52.4306 38.4556 52.55 37.5333L54.4 37.0166C54.5291 36.9776 54.6424 36.8983 54.7234 36.7904C54.8043 36.6825 54.8487 36.5515 54.85 36.4166V34.9833C54.8476 34.8463 54.8008 34.7137 54.7167 34.6055C54.6325 34.4973 54.5156 34.4194 54.3833 34.3833L52.55 33.9C52.55 33.4166 52.3833 32.9166 52.2667 32.4333L53.75 31.25C53.8591 31.1705 53.9382 31.0564 53.9745 30.9264C54.0108 30.7963 54.0022 30.6579 53.95 30.5333L53.4 29.2C53.3436 29.0749 53.2481 28.9715 53.1279 28.9054C53.0076 28.8393 52.8692 28.814 52.7333 28.8333L50.8667 29.1C50.6111 28.6889 50.3444 28.2889 50.0667 27.9L51.0333 26.2333C51.097 26.1135 51.1216 25.9768 51.1037 25.8423C51.0858 25.7078 51.0262 25.5823 50.9333 25.4833L50 24.3333C49.8898 24.2495 49.7551 24.2041 49.6167 24.2041C49.4782 24.2041 49.3436 24.2495 49.2333 24.3333L47.5667 25.3167C47.1783 25.0197 46.7719 24.747 46.35 24.5L46.5833 22.5333C46.5976 22.3982 46.5681 22.262 46.499 22.145C46.43 22.0279 46.3252 21.9362 46.2 21.8833L44.8833 21.3333C44.7542 21.2846 44.6127 21.2794 44.4803 21.3185C44.3479 21.3576 44.2319 21.4389 44.15 21.55L42.9833 23.1C42.5128 22.972 42.0338 22.8773 41.55 22.8166L40.9667 21C40.9276 20.8709 40.8484 20.7576 40.7404 20.6766C40.6325 20.5957 40.5016 20.5513 40.3667 20.55H38.9333C38.7971 20.5457 38.6634 20.5879 38.5544 20.6697C38.4453 20.7515 38.3673 20.868 38.3333 21L37.85 22.8333C37.3667 22.8333 36.8833 23 36.4 23.1166L35.2 21.6C35.1159 21.4918 34.9989 21.4138 34.8667 21.3777C34.7344 21.3417 34.5941 21.3495 34.4667 21.4L33.15 21.95C33.0218 22.0037 32.9148 22.098 32.8456 22.2185C32.7763 22.3389 32.7486 22.4789 32.7667 22.6166L33.0333 24.5C32.6004 24.7525 32.183 25.0308 31.7833 25.3333L30.1333 24.3333C30.0231 24.2495 29.8885 24.2041 29.75 24.2041C29.6115 24.2041 29.4769 24.2495 29.3667 24.3333L28.3333 25.4167C28.2481 25.5231 28.2017 25.6553 28.2017 25.7916C28.2017 25.928 28.2481 26.0602 28.3333 26.1666L29.2833 27.8333C28.9437 28.232 28.6265 28.6493 28.3333 29.0833L26.4833 28.8167C26.3475 28.7973 26.209 28.8226 26.0888 28.8887C25.9686 28.9548 25.8731 29.0582 25.8167 29.1833L25.2667 30.5167C25.2188 30.6444 25.2124 30.784 25.2483 30.9156C25.2842 31.0472 25.3606 31.1642 25.4667 31.25L27 32.45C26.8816 32.9227 26.787 33.4011 26.7167 33.8833L24.85 34.3333C24.7133 34.3636 24.5909 34.4395 24.5031 34.5485C24.4153 34.6576 24.3671 34.7933 24.3667 34.9333V36.3667C24.3691 36.5037 24.4158 36.6363 24.5 36.7444C24.5841 36.8526 24.7011 36.9306 24.8333 36.9666L26.6667 37.5333C26.7354 38.0103 26.83 38.4832 26.95 38.95L25.4 40.1167C25.2882 40.2018 25.2078 40.3216 25.1716 40.4574C25.1354 40.5932 25.1454 40.7372 25.2 40.8666L25.75 42.1833C25.8029 42.3085 25.8946 42.4133 26.0117 42.4824C26.1287 42.5514 26.2649 42.5809 26.4 42.5666L28.3333 42.3333C28.5896 42.7731 28.8735 43.1962 29.1833 43.6L28.2333 45.2666C28.1656 45.3825 28.1387 45.5176 28.1568 45.6506C28.1749 45.7835 28.2371 45.9065 28.3333 46L29.35 47.0167C29.4476 47.1118 29.5733 47.1729 29.7084 47.191C29.8435 47.209 29.9809 47.1829 30.1 47.1167L31.7667 46.1833C32.1606 46.4857 32.5724 46.764 33 47.0167L32.7667 48.8333C32.7486 48.9711 32.7763 49.111 32.8456 49.2315C32.9148 49.352 33.0218 49.4463 33.15 49.5L34.4667 50.0333C34.5919 50.0885 34.732 50.1004 34.8647 50.0672C34.9975 50.034 35.1154 49.9576 35.2 49.85L36.3667 48.3667C36.8559 48.4867 37.351 48.5813 37.85 48.65L38.3333 50.5C38.3641 50.6351 38.4406 50.7554 38.55 50.8404C38.6594 50.9255 38.7948 50.9701 38.9333 50.9666H40.3667C40.5016 50.9653 40.6325 50.921 40.7404 50.84C40.8484 50.7591 40.9276 50.6458 40.9667 50.5166L41.4833 48.6333C41.9895 48.5671 42.4906 48.4668 42.9833 48.3333L44.1333 49.8666C44.2137 49.9795 44.3306 50.0611 44.4643 50.0976C44.598 50.134 44.7401 50.1231 44.8667 50.0667L46.1833 49.5333C46.3115 49.4796 46.4185 49.3853 46.4878 49.2648C46.557 49.1444 46.5848 49.0044 46.5667 48.8666L46.5 48.3333Z" fill="white"/>
</svg>
