<svg width="24" height="25" viewBox="0 0 24 25" fill="none" xmlns="http://www.w3.org/2000/svg">
<path d="M5.26984 19.8775C7.42989 19.8775 9.22994 18.1898 9.55661 15.9751H10.6166C10.8566 16.4878 11.3633 16.8439 11.95 16.8439C12.77 16.8439 13.43 16.1389 13.43 15.2701C13.43 14.8856 13.2967 14.5295 13.0767 14.2518L16.3501 10.5132L16.6034 11.204C15.2834 11.9944 14.3901 13.5112 14.3901 15.2416C14.3901 17.8052 16.3368 19.8846 18.7435 19.8846C21.1369 19.8846 23.0769 17.8052 23.0769 15.2416C23.0769 12.678 21.1369 10.6058 18.7435 10.6058C18.3768 10.6058 18.0168 10.6556 17.6768 10.7482L15.7901 5.64235C15.6568 5.27205 15.4167 5.11539 14.9967 5.11539H12.9967C12.67 5.11539 12.4033 5.40023 12.4033 5.74917C12.4033 6.09098 12.67 6.37583 12.9967 6.37583H14.7634C14.8234 6.37583 14.8367 6.39007 14.8567 6.4328L15.9234 9.33822L9.99662 10.2355L9.12327 8.4908H9.85662C10.1833 8.4908 10.4433 8.21308 10.4433 7.86414C10.4433 7.51521 10.1766 7.23036 9.85662 7.23036H7.00322C6.68321 7.23036 6.41654 7.51521 6.41654 7.86414C6.41654 8.21308 6.67654 8.4908 7.00322 8.4908H7.8499L8.78326 10.4064L7.82324 11.4888C7.10989 10.9334 6.2232 10.6058 5.26984 10.6058C2.86312 10.6058 0.923077 12.678 0.923077 15.2416C0.923077 17.8052 2.86979 19.8775 5.26984 19.8775ZM11.95 13.6964C11.8767 13.6964 11.81 13.7035 11.7367 13.7106L10.5433 11.325L14.7501 10.6912L12.0633 13.6964C12.0233 13.6964 11.99 13.6964 11.95 13.6964ZM9.59661 14.8001C9.50994 13.8601 9.16327 12.9985 8.63659 12.3077L9.33661 11.5315L10.73 14.38C10.6433 14.5082 10.5833 14.6506 10.5366 14.8001H9.59661ZM5.26984 18.6099C3.52314 18.6099 2.1231 17.1145 2.1231 15.2416C2.1231 13.383 3.5298 11.8805 5.26984 11.8805C5.90986 11.8805 6.49654 12.0799 6.98988 12.4217L5.37651 14.2376C5.34318 14.2304 5.30984 14.2304 5.26984 14.2304C4.74317 14.2304 4.32982 14.6648 4.32316 15.2416C4.31649 15.8042 4.7365 16.2528 5.26984 16.2528C5.52318 16.2528 5.75652 16.146 5.92319 15.9751H8.34325C8.03657 17.4848 6.77655 18.6099 5.26984 18.6099ZM18.7435 18.6099C16.9968 18.6099 15.5901 17.1145 15.5901 15.2416C15.5901 14.0524 16.1701 13.0056 17.0434 12.4074L17.9035 14.7574C17.8368 14.8998 17.7901 15.0636 17.7901 15.2416C17.7835 15.8042 18.2035 16.2528 18.7435 16.2528C19.2702 16.2528 19.6835 15.8042 19.6835 15.2416C19.6835 14.7645 19.3902 14.3729 18.9768 14.2589L18.1235 11.9446C18.3235 11.9018 18.5302 11.8805 18.7435 11.8805C20.4769 11.8805 21.8902 13.3901 21.8902 15.2416C21.8902 17.1074 20.4769 18.6099 18.7435 18.6099ZM6.39654 14.8001L7.80324 13.2406C8.10991 13.6821 8.32325 14.2162 8.39658 14.8001H6.39654ZM11.9567 15.7757C11.6833 15.7757 11.47 15.5478 11.47 15.2844C11.47 14.9995 11.69 14.7574 11.9567 14.7574C12.2233 14.7574 12.43 14.9924 12.43 15.2844C12.43 15.555 12.2233 15.7757 11.9567 15.7757Z" fill="currentColor"/>
</svg>
