<svg width="24" height="24" viewBox="0 0 24 24" fill="none" xmlns="http://www.w3.org/2000/svg">
<path d="M21.63 18.91L13.63 10.22C13.4067 9.9528 13.1278 9.73761 12.8127 9.58949C12.4976 9.44136 12.1539 9.36388 11.8058 9.36245C11.4576 9.36102 11.1133 9.43568 10.797 9.58122C10.4807 9.72675 10.2 9.93964 9.97453 10.205C9.7491 10.4703 9.58436 10.7817 9.49185 11.1174C9.39934 11.4531 9.38129 11.8049 9.43896 12.1483C9.49663 12.4917 9.62862 12.8183 9.82572 13.1053C10.0228 13.3923 10.2802 13.6328 10.58 13.81L19.58 20.9C19.8452 21.1652 20.2049 21.3142 20.58 21.3142C20.9551 21.3142 21.3148 21.1652 21.58 20.9C21.8452 20.6348 21.9942 20.2751 21.9942 19.9C21.9942 19.5249 21.8452 19.1652 21.58 18.9L21.63 18.91ZM11.91 13C11.7122 13 11.5189 12.9413 11.3544 12.8315C11.19 12.7216 11.0618 12.5654 10.9861 12.3827C10.9104 12.1999 10.8906 11.9989 10.9292 11.8049C10.9678 11.6109 11.063 11.4327 11.2029 11.2929C11.3427 11.153 11.5209 11.0578 11.7149 11.0192C11.9089 10.9806 12.11 11.0004 12.2927 11.0761C12.4754 11.1518 12.6316 11.28 12.7415 11.4444C12.8513 11.6089 12.91 11.8022 12.91 12C12.91 12.2652 12.8046 12.5196 12.6171 12.7071C12.4296 12.8946 12.1752 13 11.91 13Z" fill="currentColor"/>
<path d="M15.9 19.4L14.22 18.08C13.167 18.4925 12.0264 18.6309 10.9053 18.4823C9.78416 18.3336 8.71912 17.9027 7.81 17.23L10.15 14.88L10 14.73C9.50225 14.4327 9.08908 14.0126 8.8 13.51L8.75 13.44L6.38 15.81C5.52714 14.6507 5.06714 13.2492 5.06714 11.81C5.06714 10.3708 5.52714 8.96929 6.38 7.81001L8.71 10.14C9.02916 9.54434 9.51128 9.05182 10.1 8.72001L7.81 6.43001C8.96548 5.5681 10.3685 5.10248 11.81 5.10248C13.2515 5.10248 14.6545 5.5681 15.81 6.43001L13.51 8.68001C13.8878 8.8816 14.2264 9.14914 14.51 9.47001L15 10L17.18 7.82001C17.775 8.63262 18.18 9.56841 18.3652 10.5584C18.5504 11.5484 18.511 12.5673 18.25 13.54L19.13 14.54C19.3241 14.0169 19.4583 13.4734 19.53 12.92L20.64 12.61C20.7175 12.5866 20.7854 12.539 20.834 12.4743C20.8826 12.4095 20.9092 12.3309 20.91 12.25V11.39C20.9086 11.3078 20.8805 11.2282 20.83 11.1633C20.7795 11.0984 20.7093 11.0516 20.63 11.03L19.53 10.74C19.53 10.45 19.43 10.15 19.36 9.86001L20.25 9.15001C20.3155 9.10229 20.3629 9.03389 20.3847 8.95585C20.4065 8.87782 20.4013 8.79473 20.37 8.72001L20.04 7.92001C20.0062 7.84496 19.9489 7.78292 19.8767 7.74325C19.8046 7.70357 19.7215 7.6884 19.64 7.70001L18.52 7.86001C18.3667 7.61334 18.2067 7.37334 18.04 7.14001L18.62 6.14001C18.6582 6.06812 18.673 5.98608 18.6622 5.90538C18.6515 5.82468 18.6157 5.74937 18.56 5.69001L18 5.00001C17.9339 4.94972 17.8531 4.9225 17.77 4.9225C17.6869 4.9225 17.6061 4.94972 17.54 5.00001L16.54 5.59001C16.3069 5.41185 16.0632 5.24821 15.81 5.10001L15.95 3.92001C15.9586 3.83893 15.9408 3.75724 15.8994 3.68701C15.858 3.61678 15.7951 3.56174 15.72 3.53001L14.93 3.20001C14.8525 3.17077 14.7676 3.16764 14.6882 3.19111C14.6087 3.21458 14.5391 3.26335 14.49 3.33001L13.79 4.26001C13.5077 4.18322 13.2203 4.12641 12.93 4.09001L12.58 3.00001C12.5566 2.92253 12.509 2.85456 12.4443 2.80599C12.3795 2.75742 12.3009 2.7308 12.22 2.73001H11.36C11.2782 2.72742 11.198 2.75275 11.1326 2.80183C11.0672 2.8509 11.0204 2.9208 11 3.00001L10.71 4.10001C10.42 4.10001 10.13 4.20001 9.84 4.27001L9.12 3.36001C9.06951 3.29509 8.99934 3.2483 8.92 3.22666C8.84066 3.20502 8.75644 3.20971 8.68 3.24001L7.89 3.57001C7.81308 3.60221 7.7489 3.65882 7.70733 3.7311C7.66577 3.80339 7.64914 3.88734 7.66 3.97001L7.82 5.10001C7.56022 5.25153 7.30977 5.41849 7.07 5.60001L6.08 5.00001C6.01386 4.94972 5.93307 4.9225 5.85 4.9225C5.76692 4.9225 5.68613 4.94972 5.62 5.00001L5 5.65001C4.94887 5.71386 4.92102 5.79321 4.92102 5.87501C4.92102 5.9568 4.94887 6.03616 5 6.10001L5.57 7.10001C5.36621 7.33923 5.17592 7.58962 5 7.85001L3.89 7.69001C3.80849 7.6784 3.72542 7.69357 3.65328 7.73325C3.58114 7.77292 3.52384 7.83496 3.49 7.91001L3.16 8.71001C3.13129 8.78666 3.12744 8.87041 3.14897 8.94938C3.17051 9.02835 3.21635 9.09854 3.28 9.15001L4.2 9.87001C4.12893 10.1536 4.07219 10.4407 4.03 10.73L2.91 11C2.82797 11.0182 2.75456 11.0637 2.70185 11.1291C2.64915 11.1946 2.62028 11.276 2.62 11.36V12.22C2.62143 12.3022 2.6495 12.3818 2.69998 12.4467C2.75047 12.5116 2.82065 12.5584 2.9 12.58L4 12.92C4.04126 13.2062 4.09801 13.49 4.17 13.77L3.24 14.47C3.1729 14.5211 3.1247 14.593 3.10298 14.6745C3.08125 14.7559 3.08724 14.8423 3.12 14.92L3.45 15.71C3.48173 15.7851 3.53677 15.848 3.607 15.8894C3.67723 15.9309 3.75892 15.9486 3.84 15.94L5 15.8C5.15373 16.0639 5.32407 16.3177 5.51 16.56L4.94 17.56C4.89936 17.6295 4.88319 17.7106 4.89407 17.7904C4.90495 17.8701 4.94224 17.9439 5 18L5.61 18.61C5.66856 18.6671 5.74398 18.7038 5.82505 18.7146C5.90612 18.7254 5.98852 18.7098 6.06 18.67L7.06 18.11C7.29634 18.2915 7.54346 18.4584 7.8 18.61L7.66 19.7C7.64914 19.7827 7.66577 19.8666 7.70733 19.9389C7.7489 20.0112 7.81308 20.0678 7.89 20.1L8.68 20.42C8.75515 20.4531 8.83917 20.4602 8.91883 20.4403C8.99848 20.4204 9.06926 20.3746 9.12 20.31L9.81999 19.42C10.1135 19.492 10.4106 19.5488 10.71 19.59L11 20.7C11.0184 20.7811 11.0644 20.8532 11.13 20.9043C11.1956 20.9553 11.2769 20.9821 11.36 20.98H12.22C12.3009 20.9792 12.3795 20.9526 12.4443 20.904C12.509 20.8555 12.5566 20.7875 12.58 20.71L12.89 19.58C13.1937 19.5403 13.4944 19.4801 13.79 19.4L14.48 20.32C14.5282 20.3877 14.5984 20.4367 14.6786 20.4586C14.7588 20.4804 14.8441 20.4739 14.92 20.44L15.71 20.12C15.7869 20.0878 15.8511 20.0312 15.8927 19.9589C15.9342 19.8866 15.9509 19.8027 15.94 19.72L15.9 19.4Z" fill="currentColor"/>
</svg>
