<svg width="24" height="24" viewBox="0 0 24 24" fill="none" xmlns="http://www.w3.org/2000/svg">
<g clip-path="url(#clip0_61_354)">
<path d="M19 9.66C18.6182 9.64108 18.2354 9.66794 17.86 9.74L16.57 6.21H16.62H18.1C18.3201 6.21 18.5312 6.29745 18.6869 6.45311C18.8426 6.60876 18.93 6.81988 18.93 7.04V7.37H20.6V7C20.6 6.67217 20.5353 6.34756 20.4095 6.04481C20.2838 5.74205 20.0994 5.46711 19.8672 5.23576C19.6349 5.00442 19.3592 4.82121 19.056 4.69667C18.7527 4.57212 18.4278 4.50869 18.1 4.51H15.93L14.65 5.79L15.15 7.16H10.41L9.78 5.54H11.71V3.88H6.56V5.54H8L8.65 7.21L6.93 9.94C6.3423 9.73537 5.722 9.64046 5.1 9.66C4.11043 9.68462 3.14816 9.98957 2.32503 10.5394C1.5019 11.0892 0.851711 11.8614 0.450026 12.7661C0.0483404 13.6708 -0.0883454 14.6709 0.0558539 15.6503C0.200053 16.6296 0.619216 17.5479 1.26463 18.2984C1.91004 19.0489 2.7552 19.6009 3.70187 19.8901C4.64855 20.1794 5.65788 20.194 6.61255 19.9324C7.56722 19.6707 8.42803 19.1435 9.09493 18.412C9.76184 17.6805 10.2075 16.7747 10.38 15.8H12L13.29 14.51L11.09 8.82H15.78L16.3 10.29C15.1875 10.8941 14.3319 11.8813 13.892 13.0683C13.452 14.2553 13.4575 15.5616 13.9074 16.7449C14.3573 17.9281 15.2212 18.9081 16.3387 19.5028C17.4562 20.0976 18.7515 20.2669 19.9843 19.9792C21.2171 19.6916 22.3038 18.9665 23.0426 17.9386C23.7815 16.9106 24.1225 15.6496 24.0023 14.3894C23.8821 13.1292 23.3089 11.9554 22.389 11.0857C21.4691 10.2159 20.265 9.70941 19 9.66ZM5.11 18.45C4.16318 18.4341 3.26146 18.0427 2.6032 17.3619C1.94495 16.6812 1.58409 15.7668 1.6 14.82C1.61591 13.8732 2.0073 12.9715 2.68806 12.3132C3.36881 11.655 4.28318 11.2941 5.23 11.31C5.48934 11.3092 5.74784 11.3394 6 11.4L4.78 13.34C4.58043 13.6476 4.49332 14.0148 4.53341 14.3792C4.5735 14.7437 4.73834 15.0831 5 15.34C5.30012 15.6393 5.70615 15.8082 6.13 15.81H8.68C8.47207 16.5894 8.0056 17.2751 7.357 17.7548C6.7084 18.2344 5.91614 18.4795 5.11 18.45ZM8.72 14.14H6.24L7.5 12.14C8.11828 12.652 8.5477 13.356 8.72 14.14ZM11.32 14.14H10.45C10.2576 12.7818 9.53937 11.5536 8.45 10.72L9.45 9.14001L11.32 14.14ZM18.57 18.49C17.6703 18.4444 16.8216 18.0585 16.1958 17.4105C15.5701 16.7624 15.2141 15.9007 15.2 15C15.1767 14.3778 15.3157 13.7603 15.6032 13.208C15.8907 12.6558 16.317 12.1878 16.84 11.85L18 15C18.0788 15.2058 18.2344 15.3729 18.434 15.4662C18.6336 15.5595 18.8616 15.5716 19.07 15.5C19.2774 15.4234 19.4462 15.268 19.5398 15.0677C19.6334 14.8674 19.6443 14.6383 19.57 14.43L18.46 11.36H18.82C19.2888 11.3731 19.7505 11.4785 20.1786 11.67C20.6067 11.8616 20.9929 12.1356 21.3151 12.4763C21.6373 12.8171 21.8892 13.2181 22.0565 13.6562C22.2238 14.0944 22.3031 14.5612 22.29 15.03C22.2769 15.4988 22.1715 15.9605 21.98 16.3886C21.7884 16.8167 21.5145 17.2029 21.1737 17.5251C20.8329 17.8473 20.432 18.0992 19.9938 18.2665C19.5556 18.4338 19.0888 18.5131 18.62 18.5L18.57 18.49Z" fill="currentColor"/>
</g>
<defs>
<clipPath id="clip0_61_354">
<rect width="24" height="24" fill="white"/>
</clipPath>
</defs>
</svg>
