<svg width="24" height="25" viewBox="0 0 24 25" fill="none" xmlns="http://www.w3.org/2000/svg">
<g clip-path="url(#clip0_51232_3041)">
<path d="M20.9763 10.4007L19.5725 10.1625C19.4263 9.69041 19.2382 9.23502 19.0085 8.80051L19.8357 7.64322C20.1866 7.15022 20.1323 6.47757 19.702 6.05141L18.457 4.80638C18.223 4.57242 17.9138 4.4429 17.5838 4.4429C17.3247 4.4429 17.0782 4.52228 16.8693 4.67269L15.7079 5.49992C15.2567 5.26178 14.7845 5.06542 14.2957 4.91919L14.0618 3.53211C13.9615 2.93466 13.4476 2.50015 12.8418 2.50015H11.0829C10.4771 2.50015 9.96318 2.93466 9.86291 3.53211L9.62059 4.95261C9.15266 5.09884 8.69726 5.29103 8.26276 5.52499L7.11382 4.69776C6.90492 4.54735 6.65424 4.46797 6.39521 4.46797C6.06515 4.46797 5.7518 4.59749 5.52202 4.83145L4.27281 6.07648C3.84666 6.50263 3.78817 7.17528 4.13911 7.66828L4.9747 8.84229C4.74492 9.28097 4.56109 9.73637 4.41904 10.2085L3.03196 10.4424C2.43451 10.5427 2 11.0566 2 11.6624V13.4213C2 14.0271 2.43451 14.541 3.03196 14.6413L4.45246 14.8836C4.59869 15.3515 4.79087 15.8069 5.02484 16.2414L4.20178 17.3862C3.85083 17.8792 3.90515 18.5519 4.33548 18.978L5.58051 20.223C5.81447 20.457 6.12364 20.5865 6.4537 20.5865C6.71273 20.5865 6.95923 20.5071 7.16813 20.3567L8.34214 19.5211C8.76411 19.7426 9.20697 19.9222 9.66237 20.0643L9.89634 21.4681C9.99661 22.0655 10.5105 22.5 11.1163 22.5H12.8794C13.4852 22.5 13.9991 22.0655 14.0994 21.4681L14.3375 20.0643C14.8096 19.918 15.265 19.73 15.6995 19.5003L16.8568 20.3275C17.0657 20.4779 17.3164 20.5573 17.5754 20.5573C17.9055 20.5573 18.2146 20.4278 18.4486 20.1938L19.6936 18.9488C20.1198 18.5226 20.1783 17.85 19.8273 17.357L19.0001 16.1955C19.2299 15.7568 19.4221 15.3014 19.5641 14.8335L20.9679 14.5995C21.5654 14.4992 21.9999 13.9854 21.9999 13.3795V11.6206C22.0082 11.0148 21.5737 10.5009 20.9763 10.4007ZM20.8802 13.3795C20.8802 13.4339 20.8426 13.4798 20.7883 13.4882L19.0335 13.7806C18.8121 13.8182 18.6366 13.9812 18.5823 14.1943C18.4235 14.8084 18.1812 15.3975 17.8553 15.9448C17.7425 16.137 17.7509 16.3751 17.8804 16.559L18.9124 18.0129C18.9416 18.0547 18.9374 18.1173 18.8998 18.155L17.6548 19.4C17.6256 19.4292 17.5963 19.4334 17.5754 19.4334C17.5504 19.4334 17.5295 19.4251 17.5128 19.4125L16.063 18.3806C15.8833 18.251 15.641 18.2427 15.4488 18.3555C14.9015 18.6814 14.3124 18.9237 13.6983 19.0825C13.481 19.1368 13.3181 19.3164 13.2847 19.5337L12.988 21.2884C12.9797 21.3427 12.9337 21.3803 12.8794 21.3803H11.1205C11.0662 21.3803 11.0202 21.3427 11.0119 21.2884L10.7194 19.5337C10.6818 19.3122 10.5189 19.1368 10.3058 19.0825C9.70833 18.9279 9.13177 18.6897 8.59281 18.3806C8.50508 18.3304 8.40481 18.3054 8.30871 18.3054C8.19591 18.3054 8.07893 18.3388 7.98283 18.4098L6.52055 19.4501C6.49966 19.4627 6.47877 19.471 6.45788 19.471C6.44117 19.471 6.40774 19.4668 6.3785 19.4376L5.13347 18.1926C5.09587 18.155 5.09169 18.0965 5.12093 18.0505L6.14871 16.6091C6.27823 16.4253 6.28658 16.183 6.17378 15.9908C5.8479 15.4476 5.59722 14.8585 5.43846 14.2444C5.37997 14.0313 5.20449 13.8684 4.98724 13.8308L3.21996 13.53C3.16565 13.5216 3.12805 13.4756 3.12805 13.4213V11.6624C3.12805 11.6081 3.16565 11.5621 3.21996 11.5538L4.96217 11.2613C5.1836 11.2237 5.36326 11.0608 5.41757 10.8435C5.57215 10.2294 5.8103 9.6361 6.132 9.08879C6.2448 8.8966 6.23227 8.65846 6.10275 8.47881L5.06244 7.01652C5.0332 6.97474 5.03737 6.91207 5.07498 6.87447L6.32001 5.62944C6.34925 5.6002 6.3785 5.59602 6.39939 5.59602C6.42446 5.59602 6.44535 5.60437 6.46206 5.61691L7.90345 6.64468C8.08728 6.7742 8.3296 6.78256 8.52179 6.66975C9.06492 6.34387 9.65402 6.09319 10.2682 5.93443C10.4813 5.87594 10.6442 5.70047 10.6818 5.48321L10.9826 3.71594C10.991 3.66162 11.0369 3.62402 11.0912 3.62402H12.8502C12.9045 3.62402 12.9504 3.66162 12.9588 3.71594L13.2512 5.45815C13.2888 5.67958 13.4518 5.85923 13.669 5.91354C14.2999 6.0723 14.9015 6.3188 15.4614 6.64886C15.6536 6.76167 15.8917 6.75331 16.0755 6.62379L17.5169 5.58766C17.5378 5.57513 17.5587 5.56677 17.5796 5.56677C17.5963 5.56677 17.6297 5.57095 17.659 5.6002L18.904 6.84523C18.9416 6.88283 18.9458 6.94132 18.9165 6.98728L17.8846 8.43703C17.7551 8.61668 17.7467 8.859 17.8595 9.05119C18.1854 9.5985 18.4277 10.1876 18.5865 10.8018C18.6408 11.019 18.8205 11.1819 19.0377 11.2154L20.7924 11.512C20.8468 11.5204 20.8844 11.5663 20.8844 11.6206V13.3795H20.8802Z" fill="#7C968F"/>
<path d="M12.002 8.18207C9.62061 8.18207 7.68622 10.1165 7.68622 12.4979C7.68622 14.8793 9.62061 16.8137 12.002 16.8137C14.3835 16.8137 16.3179 14.8793 16.3179 12.4979C16.3179 10.1165 14.3835 8.18207 12.002 8.18207ZM12.002 15.6857C10.2431 15.6857 8.81427 14.2568 8.81427 12.4979C8.81427 10.739 10.2431 9.31012 12.002 9.31012C13.761 9.31012 15.1898 10.739 15.1898 12.4979C15.1898 14.2568 13.761 15.6857 12.002 15.6857Z" fill="currentColor"/>
</g>
<defs>
<clipPath id="clip0_51232_3041">
<rect width="20" height="20" fill="white" transform="translate(2 2.5)"/>
</clipPath>
</defs>
</svg>
