<svg width="48" height="48" viewBox="0 0 48 48" fill="none" xmlns="http://www.w3.org/2000/svg">
<circle cx="24" cy="24" r="24" fill="url(#paint0_linear_83_7392)"/>
<path d="M27.3334 12C25.0349 12 22.8305 12.9131 21.2052 14.5384C19.5798 16.1637 18.6667 18.3681 18.6667 20.6667C18.6667 22.8133 19.4534 24.7867 20.7467 26.3067L20.3867 26.6667H19.3334L12.6667 33.3333L14.6667 35.3333L21.3334 28.6667V27.6133L21.6934 27.2533C23.2134 28.5467 25.1867 29.3333 27.3334 29.3333C29.6319 29.3333 31.8363 28.4203 33.4617 26.7949C35.087 25.1696 36.0001 22.9652 36.0001 20.6667C36.0001 18.3681 35.087 16.1637 33.4617 14.5384C31.8363 12.9131 29.6319 12 27.3334 12ZM27.3334 14.6667C30.6667 14.6667 33.3334 17.3333 33.3334 20.6667C33.3334 24 30.6667 26.6667 27.3334 26.6667C24.0001 26.6667 21.3334 24 21.3334 20.6667C21.3334 17.3333 24.0001 14.6667 27.3334 14.6667Z" fill="#1D1D1B"/>
<defs>
<linearGradient id="paint0_linear_83_7392" x1="0" y1="0" x2="52.7707" y2="5.45098" gradientUnits="userSpaceOnUse">
<stop stop-color="#FD516A"/>
<stop offset="1" stop-color="#EE2F4B"/>
</linearGradient>
</defs>
</svg>
