<svg width="39" height="39" viewBox="0 0 39 39" fill="none" xmlns="http://www.w3.org/2000/svg">
<path d="M0 19.5C0 8.73045 8.73045 0 19.5 0V0C30.2696 0 39 8.73045 39 19.5V19.5C39 30.2696 30.2696 39 19.5 39V39C8.73045 39 0 30.2696 0 19.5V19.5Z" fill="#BA1B1B"/>
<path fill-rule="evenodd" clip-rule="evenodd" d="M22.375 11.875V12.8333H27.1667V14.75H26.2083V27.2083C26.2083 28.2625 25.3458 29.125 24.2917 29.125H14.7083C13.6542 29.125 12.7917 28.2625 12.7917 27.2083V14.75H11.8333V12.8333H16.625V11.875H22.375ZM14.7083 27.2083H24.2917V14.75H14.7083V27.2083ZM16.625 16.6667H18.5417V25.2917H16.625V16.6667ZM22.375 16.6667H20.4583V25.2917H22.375V16.6667Z" fill="white"/>
</svg>
