<svg width="39" height="39" viewBox="0 0 39 39" fill="none" xmlns="http://www.w3.org/2000/svg">
<path d="M0 19.5C0 8.73045 8.73045 0 19.5 0V0C30.2696 0 39 8.73045 39 19.5V19.5C39 30.2696 30.2696 39 19.5 39V39C8.73045 39 0 30.2696 0 19.5V19.5Z" fill="#BA1B1B"/>
<path d="M8.70672 30.1368C10.4716 31.9017 13.0424 31.9323 14.8277 29.9022C16.7048 27.7701 18.8267 23.7608 21.7648 20.8228C23.9275 18.6703 26.3759 20.68 29.467 18.0072C30.987 16.8136 31.8847 14.8447 31.5277 13.243L27.4674 14.355C26.8758 14.508 26.4677 14.1407 26.2943 13.5185L25.9882 12.4779C25.8148 11.8556 26.029 11.3353 26.6105 11.1823L30.681 10.0805C30.5483 9.65205 30.1913 9.06036 29.7118 8.56048C27.2838 6.08149 23.2134 6.08149 20.8364 8.34625C17.3067 11.6924 19.9081 15.1405 17.7555 17.293C15.0623 19.9761 11.0633 22.1388 8.92096 24.0159C6.90104 25.791 6.93165 28.372 8.70672 30.1368ZM9.8595 28.9841C8.78834 27.8823 8.78834 26.2602 10.0635 25.1483C12.1855 23.2916 16.4599 20.9044 18.9185 18.4458C21.6219 15.7424 18.7859 12.4677 22.0096 9.49903C23.5704 8.0504 26.2229 7.91778 28.0795 9.21338L26.2331 9.70306C24.6722 10.1009 23.9887 11.3149 24.458 12.9268L24.7538 13.9265L25.8556 17.997C24.1213 18.2214 22.3054 17.9663 20.6018 19.6598C17.9086 22.3428 15.552 26.6479 13.6953 28.78C12.5629 30.0756 10.9307 30.0756 9.8595 28.9841ZM21.5403 14.7018L23.6929 14.1305C23.8867 14.0795 23.9989 13.8857 23.9377 13.6817C23.8867 13.4878 23.6929 13.3756 23.5092 13.4266L21.3363 14.0081C21.1425 14.0591 21.0404 14.2632 21.0813 14.4468C21.1425 14.6508 21.3261 14.763 21.5403 14.7018ZM21.8056 15.8138L23.9581 15.2323C24.1519 15.1915 24.2641 14.9977 24.2029 14.7835C24.1519 14.5896 23.9581 14.4876 23.7745 14.5284L21.6015 15.1099C21.4077 15.1609 21.3057 15.3649 21.3567 15.5486C21.4077 15.7628 21.5913 15.8648 21.8056 15.8138ZM27.7429 15.8444L29.7016 15.3139C29.467 15.8036 29.1507 16.2729 28.7222 16.6911C28.151 17.2522 27.5593 17.5685 26.9472 17.7623L26.4473 15.9158C26.835 15.9974 27.2634 15.977 27.7429 15.8444ZM22.0708 16.9156L24.2437 16.3341C24.4274 16.2831 24.5498 16.0791 24.4988 15.875C24.4478 15.6914 24.2539 15.5792 24.0499 15.6404L21.8872 16.2219C21.6933 16.2729 21.5913 16.4565 21.6219 16.6503C21.6627 16.8646 21.877 16.9666 22.0708 16.9156ZM11.7264 28.3312C12.3997 28.3312 12.9302 27.7905 12.9302 27.1172C12.9302 26.4541 12.3997 25.9134 11.7264 25.9134C11.0633 25.9134 10.5226 26.4541 10.5226 27.1172C10.5226 27.7905 11.0633 28.3312 11.7264 28.3312Z" fill="white"/>
</svg>
