<svg width="24" height="24" viewBox="0 0 24 25" fill="none" xmlns="http://www.w3.org/2000/svg">
<mask id="path-1-inside-1_51235_5388" fill="white">
<path d="M19 3H5C3.9 3 3 3.9 3 5V19C3 20.1 3.9 21 5 21H19C20.1 21 21 20.1 21 19V5C21 3.9 20.1 3 19 3ZM19 19H5V5H19V19ZM17.99 9L16.58 7.58L9.99 14.17L7.41 11.6L5.99 13.01L9.99 17L17.99 9Z"/>
</mask>
<path d="M19 19V21H21V19H19ZM5 19H3V21H5V19ZM5 5V3H3V5H5ZM19 5H21V3H19V5ZM17.99 9L19.4042 10.4142L20.8134 9.00499L19.4092 7.59079L17.99 9ZM16.58 7.58L17.9992 6.17079L16.585 4.74657L15.1658 6.16579L16.58 7.58ZM9.99 14.17L8.57853 15.587L9.99274 16.9957L11.4042 15.5842L9.99 14.17ZM7.41 11.6L8.82146 10.183L7.41224 8.77929L6.00079 10.1808L7.41 11.6ZM5.99 13.01L4.58079 11.5908L3.15478 13.0068L4.57756 14.426L5.99 13.01ZM9.99 17L8.57756 18.416L9.99177 19.8267L11.4042 18.4142L9.99 17ZM19 1H5V5H19V1ZM5 1C2.79543 1 1 2.79543 1 5H5V1ZM1 5V19H5V5H1ZM1 19C1 21.2046 2.79543 23 5 23V19H1ZM5 23H19V19H5V23ZM19 23C21.2046 23 23 21.2046 23 19H19V23ZM23 19V5H19V19H23ZM23 5C23 2.79543 21.2046 1 19 1V5H23ZM19 17H5V21H19V17ZM7 19V5H3V19H7ZM5 7H19V3H5V7ZM17 5V19H21V5H17ZM19.4092 7.59079L17.9992 6.17079L15.1608 8.98921L16.5708 10.4092L19.4092 7.59079ZM15.1658 6.16579L8.57579 12.7558L11.4042 15.5842L17.9942 8.99421L15.1658 6.16579ZM11.4015 12.753L8.82146 10.183L5.99854 13.017L8.57853 15.587L11.4015 12.753ZM6.00079 10.1808L4.58079 11.5908L7.39921 14.4292L8.81921 13.0192L6.00079 10.1808ZM4.57756 14.426L8.57756 18.416L11.4024 15.584L7.40244 11.594L4.57756 14.426ZM11.4042 18.4142L19.4042 10.4142L16.5758 7.58579L8.57579 15.5858L11.4042 18.4142Z" fill="#7C968F" mask="url(#path-1-inside-1_51235_5388)"/>
</svg>
