<svg width="24" height="25" viewBox="0 0 24 25" fill="none" xmlns="http://www.w3.org/2000/svg">
<path d="M21 12.5C21 14.719 20.1954 16.7514 18.8623 18.3211L19.1557 17.9357C20.3002 16.4321 21 14.5517 21 12.5ZM21 12.5C21 7.53228 16.9677 3.5 12 3.5M21 12.5C21 7.53772 16.9623 3.5 12 3.5M12 3.5C7.03228 3.5 3 7.53228 3 12.5M12 3.5C7.03772 3.5 3 7.53772 3 12.5M3 12.5C3 14.719 3.80456 16.7514 5.13767 18.3211L4.8443 17.9357C3.69981 16.4321 3 14.5517 3 12.5ZM17.5874 17.9649L18.3423 18.8834C16.7149 20.5004 14.4734 21.5 12 21.5C9.5266 21.5 7.28509 20.5004 5.65771 18.8834L6.41257 17.9649C6.93562 17.3285 7.92528 16.8181 9.0935 16.4711C10.2347 16.1321 11.3714 16 12 16C12.6286 16 13.7653 16.1321 14.9065 16.4711C16.0747 16.8181 17.0644 17.3285 17.5874 17.9649ZM9.5 10C9.5 8.61228 10.6123 7.5 12 7.5C13.3877 7.5 14.5 8.61228 14.5 10C14.5 11.3877 13.3877 12.5 12 12.5C10.6123 12.5 9.5 11.3877 9.5 10Z" stroke="currentColor" stroke-width="1.5"/>
</svg>
