<svg width="98" height="24" viewBox="0 0 98 24" fill="none" xmlns="http://www.w3.org/2000/svg">
<path d="M14.3375 1.35571L10.1016 9.60626C9.58173 10.7478 8.17327 13.6385 7.67803 14.7519C7.18279 15.8653 6.6735 17.0068 6.16069 18.1483H5.80945C5.80945 17.008 5.79775 15.8723 5.77433 14.7413C5.75091 13.6104 5.71579 12.4852 5.66896 11.366L5.22991 1.35571H0L1.90721 22.7601H8.75633L20.2031 1.35571H14.3375Z" fill="white"/>
<path d="M18.6436 22.7601H33.0654L33.9224 18.345H24.7657L25.6895 13.9335H33.3956L34.2526 9.52197H26.5465L27.27 5.76725H36.1598L37.0168 1.35571H22.9217L18.6436 22.7601Z" fill="white"/>
<path d="M85.779 15.4544H90.6366L89.9166 18.1625C87.349 19.7957 84.5005 19.8133 82.4282 18.1906C81.6813 17.5984 81.0955 16.8277 80.7247 15.9497L77.3282 19.318C77.9336 20.2707 78.696 21.1139 79.5832 21.8118C81.3934 23.2413 83.634 24.0162 85.9406 24.0106C88.6091 23.9695 91.1904 23.054 93.2884 21.4044L93.9207 20.9267L96.4952 11.1272H86.7554L85.779 15.4544Z" fill="white"/>
<path d="M67.2197 17.7059C66.5295 18.2057 65.7429 18.5562 64.9098 18.735C64.0767 18.9139 63.2155 18.9171 62.381 18.7446C61.5466 18.5721 60.7573 18.2276 60.0634 17.7331C59.3695 17.2386 58.7863 16.6049 58.3509 15.8724C57.3919 14.2945 57.0727 12.4096 57.4588 10.6039C57.8182 8.786 58.8617 7.17545 60.374 6.10455C61.0646 5.60469 61.851 5.25305 62.6839 5.07171C63.5168 4.89038 64.3783 4.88327 65.2141 5.05084C65.9529 5.2066 66.6558 5.49969 67.2864 5.91488L70.7426 2.34281C69.4141 1.29951 67.8621 0.578178 66.2081 0.235386C64.7178 -0.070791 63.1803 -0.0663083 61.6919 0.248554C60.2034 0.563416 58.7958 1.18189 57.5571 2.06533C55.0125 3.85311 53.2521 6.55032 52.6398 9.59935C51.9935 12.6406 52.5392 15.8139 54.1642 18.4646C54.9524 19.7659 56.0006 20.8908 57.2431 21.7689C58.4856 22.647 59.8958 23.2594 61.3856 23.568C62.1203 23.7217 62.8689 23.7994 63.6195 23.7999C65.9195 23.7913 68.1607 23.0724 70.0366 21.7416C70.6295 21.3245 71.1832 20.8542 71.6909 20.3367L68.2137 16.8594C67.9102 17.1727 67.5773 17.4562 67.2197 17.7059Z" fill="white"/>
<path d="M49.3698 18.345H43.4725L46.8971 1.35571H41.6286L37.347 22.7601H52.0603C50.9268 21.4463 50.0178 19.9546 49.3698 18.345Z" fill="white"/>
<path d="M92.8494 5.72164C93.3239 5.99568 93.7558 6.33766 94.1314 6.73671L94.6126 7.24952L97.9599 4.11298L97.4822 3.60017C96.7983 2.87421 96.0113 2.25289 95.1465 1.75618C90.7912 -0.758675 84.1422 0.266936 80.3243 4.04624L74.982 9.34289C74.7447 8.11275 74.3156 6.92751 73.7105 5.83052L68.6984 10.9516L74.2655 16.5081L83.5557 7.28816C85.8738 5.00161 90.3029 4.25347 92.8494 5.72164Z" fill="white"/>
</svg>
